<?xml version="1.0" encoding="utf-8"?>
<!-- Generator: Adobe Illustrator 22.1.0, SVG Export Plug-In . SVG Version: 6.00 Build 0)  -->
<svg version="1.1" id="Layer_1" xmlns="http://www.w3.org/2000/svg" xmlns:xlink="http://www.w3.org/1999/xlink" x="0px" y="0px"
	 viewBox="0 0 32 32" style="enable-background:new 0 0 32 32;" xml:space="preserve">
<style type="text/css">
	.st0{fill:#009944;}
	.st1{fill:#FFFFFF;}
</style>
<circle class="st0" cx="16" cy="16" r="16"/>
<g>
	<path class="st1" d="M6.8,6.8C7.4,8,8,9.2,8.5,10.2c0.6,1.2,1.2,2.2,1.5,2.9c0.4,0.8,0.8,1.5,1.3,2.3c1.3-2,2.8-4.9,4.4-8.6l3.7,0
		c0.1,0,0.2,0.1,0.2,0.2s-0.1,0.1-0.2,0.2c-0.7,0.1-1.1,0.2-1.3,0.4c-0.2,0.2-0.4,0.5-0.4,1s-0.1,1.3-0.2,2.6c0,1.3-0.1,2.3-0.1,3.1
		c0,1.6,0,2.5,0,2.8c0,0.3,0.1,0.5,0.3,0.6c0.2,0.2,0.5,0.3,1.1,0.3c0.2,0,1.1-0.5,1.1-0.4s-1,0.7-1.2,0.7l-3.6,0h-0.9
		c-0.2,0-0.3,0-0.3-0.1c0-0.1,0.1-0.1,0.2-0.1c0.5-0.1,0.9-0.2,1-0.3s0.3-0.3,0.4-0.6s0.1-1.1,0.1-2.3l0.2-4.2L16,8.5
		c0-0.2,0-0.2-0.1-0.2c-0.1,0-0.1,0-0.2,0.1l-1.8,3.4c-1.2,2.2-1.9,3.6-2.2,4.2l-0.6,1.3c-0.2,0.4-0.3,0.6-0.3,0.7
		c0,0-0.1,0.1-0.1,0.1c-0.1,0-0.1-0.1-0.2-0.2c-0.1-0.4-0.7-1.5-1.7-3.5c-0.5-1.1-1.2-2.3-1.9-3.8S5.7,8.5,5.6,8.5S5.5,8.4,5.5,8.4
		c-0.1,0-0.1,0.1-0.1,0.2l-0.1,5.3l0,1.8c0,0.9,0.1,1.5,0.4,1.8c0.3,0.3,0.7,0.4,1.2,0.4c0.3,0,0.5,0.1,0.5,0.2
		c0,0.1-0.1,0.1-0.2,0.1l-0.2,0l-0.6,0l-1.3,0c-0.6,0-1.3,0-2.2,0.1c-0.1,0-0.1-0.1-0.1-0.1C2.7,18.1,2.8,18,3,18
		c0.6,0,1.1-0.2,1.4-0.6s0.4-1.2,0.4-2.5l0-1.5l0.1-3.9c0-0.9-0.1-1.5-0.4-1.9S3.8,7.1,3.2,7C3,7,2.9,6.9,2.9,6.8
		c0-0.1,0.1-0.2,0.3-0.2c0.1,0,0.2,0,0.3,0L6.8,6.8z"/>
	<path class="st1" d="M28.5,25.3c-0.3,0-0.5,0-0.5,0c-0.2,0-0.6,0-1.2,0c-0.6,0-1.8,0-3.7,0h-2.3c-0.1,0-0.4,0-0.9,0
		c-0.5,0-0.9,0-1,0c-0.5,0-0.7-0.1-0.7-0.2c0-0.1,0.1-0.1,0.3-0.1c0.6,0,1-0.2,1.2-0.4s0.4-0.5,0.5-0.9s0.1-1.4,0.1-3.2l0-3.1
		c0-1,0-1.7-0.1-2.1s-0.3-0.7-0.6-0.9s-0.6-0.3-1-0.4c-0.2,0-0.3-0.1-0.3-0.2c0-0.1,0.1-0.2,0.3-0.2c0,0,0.1,0,0.2,0
		c1,0.1,2.1,0.1,3.4,0.1l1.6,0c0.2,0,0.3,0.1,0.3,0.2c0,0.1-0.1,0.2-0.3,0.2c-0.4,0-0.8,0.1-1.1,0.2c-0.3,0.2-0.5,0.4-0.6,0.6
		s-0.1,0.6-0.1,1.3l-0.1,4.2l0,2.3c0,0.7,0,1.2,0.1,1.4s0.2,0.4,0.4,0.6s0.6,0.3,1.1,0.3c0,0,0.6,0,1.7-0.1c0.8-0.1,1.6-0.5,2.3-1.2
		c0.7-0.7,1.1-1.3,1.3-1.8c0.1-0.2,0.3-1.2,0.4-1.2c0.1,0,0,1.1,0,1.2c0,0.2-0.1,0.8-0.3,1.8S28.5,25.2,28.5,25.3z"/>
</g>
<path class="st1" d="M28.1,11.4c-0.3-0.5-1.1-0.6-2-0.3c-0.1-1-0.5-1.7-1.1-1.8c-0.7-0.1-1.3,0.9-1.4,2.1c-0.1,1,0.7,1.7,0.8,2.2
	c0.5-0.1,1.4,0.3,2.3-0.1C27.7,13,28.4,12,28.1,11.4z"/>
</svg>
